<svg width="1658" height="651" xmlns="http://www.w3.org/2000/svg" xmlns:xlink="http://www.w3.org/1999/xlink" xml:space="preserve" overflow="hidden"><g transform="translate(117 0)"><path d="M464.518 275.643 357.145 188.188C349.132 181.549 337.457 181.549 329.444 188.188L222.071 275.872C217.721 279.306 217.721 286.174 222.071 289.608L255.725 317.081C260.533 320.973 267.401 320.973 272.438 317.081L343.18 259.388 413.922 317.31C418.73 321.202 425.598 321.202 430.635 317.31L464.289 289.837C468.868 285.945 468.868 279.306 464.518 275.643Z" fill="#FFFFFF" transform="matrix(1 0 0 1.00084 -136.369 -18.2939)"/><path d="M572.119 363.785 664.153 288.921C668.503 285.487 668.503 278.619 664.153 275.185L357.145 24.4965C349.132 17.8573 337.457 17.8573 329.444 24.4965L22.665 274.727C18.3151 278.161 18.3151 285.029 22.665 288.464L114.699 363.556 22.665 438.648C18.3151 442.082 18.3151 448.95 22.665 452.384L283.885 665.527C289.608 670.105 298.079 666.213 298.079 658.658L298.079 441.853C298.079 435.214 295.103 428.803 289.837 424.682L215.203 363.785 164.836 322.804 121.338 286.861C118.133 284.343 118.133 279.306 121.338 276.559L335.167 102.107C339.975 98.215 346.843 98.215 351.88 102.107L565.709 276.559C568.914 279.077 568.914 284.114 565.709 286.861L521.982 322.576 471.386 363.785 396.752 424.682C391.486 428.803 388.51 435.214 388.51 441.853L388.51 658.658C388.51 665.984 397.21 670.105 402.704 665.527L663.924 452.384C668.274 448.95 668.274 442.082 663.924 438.648L572.119 363.785ZM169.186 408.199 230.313 458.108C233.289 460.626 235.35 464.518 235.35 468.41L235.35 534.344C235.35 538.007 231 540.297 228.252 537.778L121.338 450.553C118.133 448.034 118.133 442.998 121.338 440.25L160.944 407.97C163.234 405.909 166.668 405.909 169.186 408.199ZM451.697 534.344 451.697 468.41C451.697 464.518 453.529 460.626 456.734 458.108L517.861 408.199C520.15 406.138 523.584 406.138 526.103 408.199L565.709 440.479C568.914 442.998 568.914 448.034 565.709 450.781L458.794 538.007C455.818 540.068 451.697 538.236 451.697 534.344Z" fill="#FFFFFF" transform="matrix(1 0 0 1.00084 -136.369 -18.2939)"/><path d="M124.806 102.442 124.806 137.071 81.8817 137.071 81.8817 361.073 47.2533 361.073 47.2533 137.071 0 137.071 0 102.442 124.806 102.442ZM189.735 359.991C163.763 359.991 142.842 338.709 142.842 312.737L142.842 200.195C142.842 176.388 162.32 156.91 186.127 156.91L193.702 156.91C217.509 156.91 236.988 176.388 236.988 200.195L236.988 247.449 176.388 248.531 176.388 312.737C176.388 320.312 182.16 326.445 189.735 326.445 197.31 326.445 203.442 320.312 203.442 312.737L203.442 290.373 236.988 290.373 236.988 312.737C236.988 338.709 215.706 359.991 189.735 359.991ZM193.702 190.095 186.127 190.095C180.717 190.095 176.388 194.785 176.388 200.195L176.388 215.345 203.442 214.624 203.442 200.195C203.442 194.785 199.113 190.095 193.702 190.095ZM306.245 360.712 299.03 360.712C274.863 360.712 255.024 341.234 255.024 317.066L255.745 198.752C255.745 174.585 275.584 155.106 299.752 155.106L306.966 155.106C331.134 155.106 350.973 174.585 350.973 198.752L350.973 227.609 317.066 227.609 317.066 198.752C317.066 193.342 312.737 189.013 306.966 189.013L299.752 189.013C293.98 189.013 289.652 193.342 289.652 198.752L288.93 317.066C288.93 322.477 293.259 326.805 299.03 326.805L306.245 326.805C312.016 326.805 316.345 322.477 316.345 317.066L316.345 283.159 350.252 283.159 350.252 317.066C350.252 341.234 330.773 360.712 306.245 360.712ZM416.623 156.549C442.233 156.549 463.154 177.11 463.154 202.72L463.154 360.351 428.887 360.351 428.887 202.72C428.887 196.227 423.476 190.456 416.623 190.456L403.276 190.456 403.276 360.351 369.009 360.351 369.009 103.164 403.276 103.164 403.276 156.549 416.623 156.549ZM585.436 156.549 620.425 156.549 620.425 317.066C620.425 341.234 600.946 360.712 576.779 360.712 567.04 360.712 558.022 357.466 550.807 352.055 543.593 357.466 534.575 360.712 524.836 360.712 500.668 360.712 481.19 341.234 481.19 317.066L481.19 157.992 515.818 157.992 515.818 317.066C515.818 322.116 519.786 326.084 524.836 326.084 529.525 326.084 533.493 322.116 533.493 317.066L533.493 157.992 568.122 157.992 568.122 317.066C568.122 322.116 572.089 326.084 576.779 326.084 581.829 326.084 585.436 322.116 585.436 317.066L585.436 156.549ZM720.342 295.423 720.342 360.351 687.157 360.351 687.157 359.269C683.91 359.991 680.664 360.351 677.057 360.351 651.807 360.351 631.607 340.152 631.607 314.902L631.607 276.306C631.607 266.206 635.575 256.827 642.789 249.613 649.643 242.759 659.021 238.791 669.121 238.791L686.435 238.791 686.435 199.835C686.435 194.424 681.746 189.735 676.335 189.735L674.532 189.735C668.76 189.735 664.432 194.424 664.432 199.835L664.432 227.249 630.886 227.249 630.886 199.835C630.886 175.667 650.364 156.188 674.532 156.188L676.335 156.188C700.503 156.188 719.981 175.667 719.981 199.835ZM677.057 326.805C682.467 326.805 687.157 322.477 687.157 317.066L686.796 272.698 669.121 272.338C667.678 272.338 666.957 273.059 666.235 273.42 665.875 274.141 665.153 274.863 665.153 276.306L665.153 314.902C665.153 321.395 670.564 326.805 677.057 326.805ZM809.077 327.166 809.077 360.712 730.803 360.712 769.038 189.735 738.378 189.735 738.378 155.828 809.438 155.828 771.203 327.166 809.077 327.166ZM874.366 359.991C848.395 359.991 827.474 338.709 827.474 312.737L827.474 200.195C827.474 176.388 846.952 156.91 870.759 156.91L878.334 156.91C902.141 156.91 921.62 176.388 921.62 200.195L921.62 247.449 861.02 248.531 861.02 312.737C861.02 320.312 866.791 326.445 874.366 326.445 881.941 326.445 888.073 320.312 888.073 312.737L888.073 290.373 921.62 290.373 921.62 312.737C921.62 338.709 900.338 359.991 874.366 359.991ZM878.334 190.095 870.759 190.095C865.348 190.095 861.02 194.785 861.02 200.195L861.02 215.345 888.073 214.624 888.073 200.195C888.073 194.785 883.745 190.095 878.334 190.095Z" fill="#FFFFFF" transform="matrix(1 0 0 1.00084 618.518 91.7139)"/></g></svg>