<svg width="788" height="783" xmlns="http://www.w3.org/2000/svg" xmlns:xlink="http://www.w3.org/1999/xlink" xml:space="preserve" overflow="hidden"><defs><clipPath id="clip0"><rect x="-341" y="-63" width="788" height="783"/></clipPath></defs><g clip-path="url(#clip0)" transform="translate(341 63)"><path d="M559.176 331.813 429.923 226.537C420.278 218.544 406.223 218.544 396.577 226.537L267.324 332.088C262.088 336.222 262.088 344.49 267.324 348.624L307.836 381.695C313.624 386.38 321.891 386.38 327.954 381.695L413.112 312.246 498.27 381.97C504.058 386.656 512.325 386.656 518.388 381.97L558.901 348.899C564.412 344.214 564.412 336.222 559.176 331.813Z" fill="#FFFFFF" transform="matrix(1.00124 0 0 1 -364.365 -85.0033)"/><path d="M688.704 437.916 799.492 347.797C804.729 343.663 804.729 335.395 799.492 331.262L429.923 29.4883C420.278 21.4962 406.223 21.4962 396.577 29.4883L27.2836 330.71C22.0474 334.844 22.0474 343.112 27.2836 347.246L138.072 437.64 27.2836 528.034C22.0474 532.168 22.0474 540.436 27.2836 544.57L341.734 801.146C348.624 806.658 358.821 801.973 358.821 792.878L358.821 531.893C358.821 523.9 355.238 516.184 348.899 511.223L259.056 437.916 198.426 388.585 146.064 345.317C142.205 342.285 142.205 336.222 146.064 332.915L403.467 122.914C409.254 118.229 417.522 118.229 423.585 122.914L680.988 332.915C684.846 335.947 684.846 342.01 680.988 345.317L628.35 388.309 567.444 437.916 477.601 511.223C471.262 516.184 467.68 523.9 467.68 531.893L467.68 792.878C467.68 801.697 478.152 806.658 484.766 801.146L799.217 544.57C804.453 540.436 804.453 532.168 799.217 528.034L688.704 437.916ZM203.662 491.38 277.246 551.46C280.828 554.491 283.309 559.176 283.309 563.861L283.309 643.232C283.309 647.641 278.072 650.397 274.765 647.366L146.064 542.365C142.205 539.333 142.205 533.27 146.064 529.963L193.741 491.105C196.497 488.625 200.631 488.625 203.662 491.38ZM543.743 643.232 543.743 563.861C543.743 559.176 545.948 554.491 549.806 551.46L623.389 491.38C626.145 488.9 630.279 488.9 633.31 491.38L680.988 530.239C684.846 533.27 684.846 539.333 680.988 542.641L552.286 647.641C548.704 650.121 543.743 647.917 543.743 643.232Z" fill="#FFFFFF" transform="matrix(1.00124 0 0 1 -364.365 -85.0033)"/><path d="M150.239 123.318 150.239 165.003 98.5673 165.003 98.5673 434.651 56.8824 434.651 56.8824 165.003 0 165.003 0 123.318 150.239 123.318ZM228.398 433.349C197.135 433.349 171.95 407.73 171.95 376.466L171.95 240.991C171.95 212.332 195.398 188.884 224.056 188.884L233.175 188.884C261.833 188.884 285.281 212.332 285.281 240.991L285.281 297.873 212.332 299.176 212.332 376.466C212.332 385.585 219.28 392.967 228.398 392.967 237.517 392.967 244.898 385.585 244.898 376.466L244.898 349.545 285.281 349.545 285.281 376.466C285.281 407.73 259.662 433.349 228.398 433.349ZM233.175 228.832 224.056 228.832C217.543 228.832 212.332 234.477 212.332 240.991L212.332 259.228 244.898 258.359 244.898 240.991C244.898 234.477 239.688 228.832 233.175 228.832ZM368.65 434.217 359.966 434.217C330.873 434.217 306.992 410.769 306.992 381.677L307.86 239.254C307.86 210.161 331.742 186.713 360.834 186.713L369.519 186.713C398.611 186.713 422.493 210.161 422.493 239.254L422.493 273.991 381.677 273.991 381.677 239.254C381.677 232.74 376.466 227.53 369.519 227.53L360.834 227.53C353.887 227.53 348.676 232.74 348.676 239.254L347.808 381.677C347.808 388.19 353.019 393.401 359.966 393.401L368.65 393.401C375.598 393.401 380.808 388.19 380.808 381.677L380.808 340.86 421.625 340.86 421.625 381.677C421.625 410.769 398.177 434.217 368.65 434.217ZM501.521 188.45C532.35 188.45 557.535 213.201 557.535 244.03L557.535 433.783 516.284 433.783 516.284 244.03C516.284 236.214 509.771 229.267 501.521 229.267L485.455 229.267 485.455 433.783 444.204 433.783 444.204 124.186 485.455 124.186 485.455 188.45 501.521 188.45ZM704.734 188.45 746.854 188.45 746.854 381.677C746.854 410.769 723.406 434.217 694.313 434.217 682.589 434.217 671.734 430.309 663.05 423.796 654.365 430.309 643.51 434.217 631.786 434.217 602.693 434.217 579.246 410.769 579.246 381.677L579.246 190.187 620.931 190.187 620.931 381.677C620.931 387.756 625.707 392.532 631.786 392.532 637.431 392.532 642.207 387.756 642.207 381.677L642.207 190.187 683.892 190.187 683.892 381.677C683.892 387.756 688.668 392.532 694.313 392.532 700.392 392.532 704.734 387.756 704.734 381.677L704.734 188.45ZM867.132 355.624 867.132 433.783 827.184 433.783 827.184 432.48C823.276 433.349 819.368 433.783 815.026 433.783 784.63 433.783 760.314 409.467 760.314 379.072L760.314 332.61C760.314 320.452 765.091 309.163 773.775 300.478 782.025 292.228 793.315 287.452 805.473 287.452L826.315 287.452 826.315 240.556C826.315 234.043 820.67 228.398 814.157 228.398L811.986 228.398C805.039 228.398 799.828 234.043 799.828 240.556L799.828 273.557 759.446 273.557 759.446 240.556C759.446 211.464 782.894 188.016 811.986 188.016L814.157 188.016C843.25 188.016 866.697 211.464 866.697 240.556ZM815.026 393.401C821.539 393.401 827.184 388.19 827.184 381.677L826.75 328.268 805.473 327.834C803.736 327.834 802.867 328.702 801.999 329.137 801.565 330.005 800.696 330.873 800.696 332.61L800.696 379.072C800.696 386.887 807.21 393.401 815.026 393.401ZM973.949 393.835 973.949 434.217 879.724 434.217 925.751 228.398 888.842 228.398 888.842 187.582 974.383 187.582 928.356 393.835 973.949 393.835ZM1052.54 433.349C1021.28 433.349 996.094 407.73 996.094 376.466L996.094 240.991C996.094 212.332 1019.54 188.884 1048.2 188.884L1057.32 188.884C1085.98 188.884 1109.42 212.332 1109.42 240.991L1109.42 297.873 1036.48 299.176 1036.48 376.466C1036.48 385.585 1043.42 392.967 1052.54 392.967 1061.66 392.967 1069.04 385.585 1069.04 376.466L1069.04 349.545 1109.42 349.545 1109.42 376.466C1109.42 407.73 1083.81 433.349 1052.54 433.349ZM1057.32 228.832 1048.2 228.832C1041.69 228.832 1036.48 234.477 1036.48 240.991L1036.48 259.228 1069.04 258.359 1069.04 240.991C1069.04 234.477 1063.83 228.832 1057.32 228.832Z" fill="#FFFFFF" transform="matrix(1.00124 0 0 1 545.479 47.3103)"/></g></svg>